<mxfile host="app.diagrams.net" modified="2021-06-25T09:17:39.477Z" agent="5.0 (Windows)" etag="Wy3IjJ-KJ5PmioGePDQc" version="14.8.0" type="github">
  <diagram id="7KBXduqILSjG5q8MCGv4" name="Page-1">
    <mxGraphModel dx="1673" dy="918" grid="1" gridSize="10" guides="1" tooltips="1" connect="1" arrows="1" fold="1" page="1" pageScale="1" pageWidth="850" pageHeight="1100" math="0" shadow="0">
      <root>
        <mxCell id="0" />
        <mxCell id="1" parent="0" />
        <mxCell id="9-0OQLkkKcLO5UEKQbR6-8" style="edgeStyle=orthogonalEdgeStyle;rounded=0;orthogonalLoop=1;jettySize=auto;html=1;endArrow=openThin;endFill=0;" parent="1" source="9-0OQLkkKcLO5UEKQbR6-1" target="9-0OQLkkKcLO5UEKQbR6-7" edge="1">
          <mxGeometry relative="1" as="geometry" />
        </mxCell>
        <mxCell id="9-0OQLkkKcLO5UEKQbR6-1" value="Direktur" style="shape=umlActor;verticalLabelPosition=bottom;verticalAlign=top;html=1;" parent="1" vertex="1">
          <mxGeometry x="90" y="309" width="30" height="60" as="geometry" />
        </mxCell>
        <mxCell id="9-0OQLkkKcLO5UEKQbR6-12" style="edgeStyle=none;rounded=0;orthogonalLoop=1;jettySize=auto;html=1;entryX=0;entryY=0.5;entryDx=0;entryDy=0;endArrow=openThin;endFill=0;" parent="1" source="9-0OQLkkKcLO5UEKQbR6-7" target="9-0OQLkkKcLO5UEKQbR6-11" edge="1">
          <mxGeometry relative="1" as="geometry" />
        </mxCell>
        <mxCell id="9-0OQLkkKcLO5UEKQbR6-7" value="Login" style="ellipse;whiteSpace=wrap;html=1;" parent="1" vertex="1">
          <mxGeometry x="220" y="315.25" width="70" height="47.5" as="geometry" />
        </mxCell>
        <mxCell id="9-0OQLkkKcLO5UEKQbR6-10" style="rounded=0;orthogonalLoop=1;jettySize=auto;html=1;entryX=0.5;entryY=1;entryDx=0;entryDy=0;dashed=1;endArrow=openThin;endFill=0;" parent="1" source="9-0OQLkkKcLO5UEKQbR6-9" target="9-0OQLkkKcLO5UEKQbR6-7" edge="1">
          <mxGeometry relative="1" as="geometry" />
        </mxCell>
        <mxCell id="9-0OQLkkKcLO5UEKQbR6-9" value="Lupa kata sandi" style="ellipse;whiteSpace=wrap;html=1;" parent="1" vertex="1">
          <mxGeometry x="230" y="389" width="70" height="50" as="geometry" />
        </mxCell>
        <mxCell id="9-0OQLkkKcLO5UEKQbR6-11" value="Dashboard" style="ellipse;whiteSpace=wrap;html=1;" parent="1" vertex="1">
          <mxGeometry x="410" y="316.5" width="70" height="45" as="geometry" />
        </mxCell>
        <mxCell id="9-0OQLkkKcLO5UEKQbR6-14" style="edgeStyle=none;rounded=0;orthogonalLoop=1;jettySize=auto;html=1;endArrow=openThin;endFill=0;dashed=1;" parent="1" source="9-0OQLkkKcLO5UEKQbR6-13" target="9-0OQLkkKcLO5UEKQbR6-11" edge="1">
          <mxGeometry relative="1" as="geometry" />
        </mxCell>
        <mxCell id="9-0OQLkkKcLO5UEKQbR6-13" value="Logout" style="ellipse;whiteSpace=wrap;html=1;" parent="1" vertex="1">
          <mxGeometry x="280" y="269" width="60" height="40" as="geometry" />
        </mxCell>
        <mxCell id="9-0OQLkkKcLO5UEKQbR6-18" style="edgeStyle=none;rounded=0;orthogonalLoop=1;jettySize=auto;html=1;entryX=0.429;entryY=0.944;entryDx=0;entryDy=0;entryPerimeter=0;dashed=1;endArrow=openThin;endFill=0;" parent="1" source="9-0OQLkkKcLO5UEKQbR6-17" target="9-0OQLkkKcLO5UEKQbR6-11" edge="1">
          <mxGeometry relative="1" as="geometry" />
        </mxCell>
        <mxCell id="9-0OQLkkKcLO5UEKQbR6-17" value="Data pegawai" style="ellipse;whiteSpace=wrap;html=1;" parent="1" vertex="1">
          <mxGeometry x="395" y="399" width="85" height="40" as="geometry" />
        </mxCell>
        <mxCell id="9-0OQLkkKcLO5UEKQbR6-20" style="edgeStyle=none;rounded=0;orthogonalLoop=1;jettySize=auto;html=1;entryX=0.077;entryY=0.796;entryDx=0;entryDy=0;endArrow=openThin;endFill=0;entryPerimeter=0;" parent="1" source="9-0OQLkkKcLO5UEKQbR6-19" target="9-0OQLkkKcLO5UEKQbR6-17" edge="1">
          <mxGeometry relative="1" as="geometry" />
        </mxCell>
        <mxCell id="9-0OQLkkKcLO5UEKQbR6-19" value="Melihat data" style="ellipse;whiteSpace=wrap;html=1;" parent="1" vertex="1">
          <mxGeometry x="315" y="439" width="80" height="30" as="geometry" />
        </mxCell>
        <mxCell id="9-0OQLkkKcLO5UEKQbR6-22" style="edgeStyle=none;rounded=0;orthogonalLoop=1;jettySize=auto;html=1;entryX=1;entryY=0.5;entryDx=0;entryDy=0;endArrow=openThin;endFill=0;dashed=1;" parent="1" source="9-0OQLkkKcLO5UEKQbR6-21" target="9-0OQLkkKcLO5UEKQbR6-11" edge="1">
          <mxGeometry relative="1" as="geometry" />
        </mxCell>
        <mxCell id="9-0OQLkkKcLO5UEKQbR6-21" value="Data Nota Dinas" style="ellipse;whiteSpace=wrap;html=1;" parent="1" vertex="1">
          <mxGeometry x="520" y="290" width="80" height="40" as="geometry" />
        </mxCell>
        <mxCell id="9-0OQLkkKcLO5UEKQbR6-24" style="edgeStyle=none;rounded=0;orthogonalLoop=1;jettySize=auto;html=1;endArrow=openThin;endFill=0;dashed=1;" parent="1" source="9-0OQLkkKcLO5UEKQbR6-23" target="9-0OQLkkKcLO5UEKQbR6-11" edge="1">
          <mxGeometry relative="1" as="geometry" />
        </mxCell>
        <mxCell id="9-0OQLkkKcLO5UEKQbR6-23" value="Data Surat Tugas" style="ellipse;whiteSpace=wrap;html=1;" parent="1" vertex="1">
          <mxGeometry x="510" y="229" width="80" height="50" as="geometry" />
        </mxCell>
        <mxCell id="9-0OQLkkKcLO5UEKQbR6-26" style="edgeStyle=none;rounded=0;orthogonalLoop=1;jettySize=auto;html=1;dashed=1;endArrow=openThin;endFill=0;" parent="1" source="9-0OQLkkKcLO5UEKQbR6-25" target="9-0OQLkkKcLO5UEKQbR6-11" edge="1">
          <mxGeometry relative="1" as="geometry" />
        </mxCell>
        <mxCell id="9-0OQLkkKcLO5UEKQbR6-38" style="edgeStyle=none;rounded=0;orthogonalLoop=1;jettySize=auto;html=1;endArrow=openThin;endFill=0;" parent="1" source="9-0OQLkkKcLO5UEKQbR6-37" target="9-0OQLkkKcLO5UEKQbR6-23" edge="1">
          <mxGeometry relative="1" as="geometry" />
        </mxCell>
        <mxCell id="9-0OQLkkKcLO5UEKQbR6-37" value="Cetak Data" style="ellipse;whiteSpace=wrap;html=1;" parent="1" vertex="1">
          <mxGeometry x="610" y="129" width="85" height="40" as="geometry" />
        </mxCell>
        <mxCell id="9-0OQLkkKcLO5UEKQbR6-40" style="edgeStyle=none;rounded=0;orthogonalLoop=1;jettySize=auto;html=1;endArrow=openThin;endFill=0;" parent="1" source="9-0OQLkkKcLO5UEKQbR6-39" target="9-0OQLkkKcLO5UEKQbR6-23" edge="1">
          <mxGeometry relative="1" as="geometry" />
        </mxCell>
        <mxCell id="9-0OQLkkKcLO5UEKQbR6-39" value="Melihat Data" style="ellipse;whiteSpace=wrap;html=1;" parent="1" vertex="1">
          <mxGeometry x="645" y="180" width="75" height="40" as="geometry" />
        </mxCell>
        <mxCell id="9-0OQLkkKcLO5UEKQbR6-46" style="edgeStyle=none;rounded=0;orthogonalLoop=1;jettySize=auto;html=1;entryX=0.782;entryY=0.142;entryDx=0;entryDy=0;entryPerimeter=0;endArrow=openThin;endFill=0;" parent="1" source="9-0OQLkkKcLO5UEKQbR6-41" target="9-0OQLkkKcLO5UEKQbR6-21" edge="1">
          <mxGeometry relative="1" as="geometry" />
        </mxCell>
        <mxCell id="9-0OQLkkKcLO5UEKQbR6-41" value="Ubah Data" style="ellipse;whiteSpace=wrap;html=1;" parent="1" vertex="1">
          <mxGeometry x="650" y="234" width="65" height="40" as="geometry" />
        </mxCell>
        <mxCell id="9-0OQLkkKcLO5UEKQbR6-50" style="edgeStyle=none;rounded=0;orthogonalLoop=1;jettySize=auto;html=1;entryX=0.972;entryY=0.582;entryDx=0;entryDy=0;entryPerimeter=0;endArrow=openThin;endFill=0;" parent="1" source="9-0OQLkkKcLO5UEKQbR6-43" target="9-0OQLkkKcLO5UEKQbR6-21" edge="1">
          <mxGeometry relative="1" as="geometry" />
        </mxCell>
        <mxCell id="9-0OQLkkKcLO5UEKQbR6-43" value="Tambah Data" style="ellipse;whiteSpace=wrap;html=1;" parent="1" vertex="1">
          <mxGeometry x="635" y="290" width="85" height="40" as="geometry" />
        </mxCell>
        <mxCell id="9-0OQLkkKcLO5UEKQbR6-49" style="edgeStyle=none;rounded=0;orthogonalLoop=1;jettySize=auto;html=1;endArrow=openThin;endFill=0;" parent="1" source="9-0OQLkkKcLO5UEKQbR6-44" target="9-0OQLkkKcLO5UEKQbR6-21" edge="1">
          <mxGeometry relative="1" as="geometry" />
        </mxCell>
        <mxCell id="9-0OQLkkKcLO5UEKQbR6-44" value="Cetak Data" style="ellipse;whiteSpace=wrap;html=1;" parent="1" vertex="1">
          <mxGeometry x="630" y="339" width="85" height="40" as="geometry" />
        </mxCell>
        <mxCell id="9-0OQLkkKcLO5UEKQbR6-48" style="edgeStyle=none;rounded=0;orthogonalLoop=1;jettySize=auto;html=1;endArrow=openThin;endFill=0;" parent="1" source="9-0OQLkkKcLO5UEKQbR6-45" target="9-0OQLkkKcLO5UEKQbR6-21" edge="1">
          <mxGeometry relative="1" as="geometry" />
        </mxCell>
        <mxCell id="9-0OQLkkKcLO5UEKQbR6-45" value="Melihat Data" style="ellipse;whiteSpace=wrap;html=1;" parent="1" vertex="1">
          <mxGeometry x="562.5" y="349" width="60" height="40" as="geometry" />
        </mxCell>
        <mxCell id="9-0OQLkkKcLO5UEKQbR6-52" style="edgeStyle=none;rounded=0;orthogonalLoop=1;jettySize=auto;html=1;entryX=0.38;entryY=0.999;entryDx=0;entryDy=0;entryPerimeter=0;endArrow=openThin;endFill=0;" parent="1" source="9-0OQLkkKcLO5UEKQbR6-51" target="9-0OQLkkKcLO5UEKQbR6-17" edge="1">
          <mxGeometry relative="1" as="geometry" />
        </mxCell>
        <mxCell id="9-0OQLkkKcLO5UEKQbR6-51" value="Cetak Data" style="ellipse;whiteSpace=wrap;html=1;" parent="1" vertex="1">
          <mxGeometry x="380" y="469" width="70" height="40" as="geometry" />
        </mxCell>
        <mxCell id="9-0OQLkkKcLO5UEKQbR6-54" style="edgeStyle=none;rounded=0;orthogonalLoop=1;jettySize=auto;html=1;entryX=0.599;entryY=0.981;entryDx=0;entryDy=0;entryPerimeter=0;endArrow=openThin;endFill=0;" parent="1" source="9-0OQLkkKcLO5UEKQbR6-53" target="9-0OQLkkKcLO5UEKQbR6-17" edge="1">
          <mxGeometry relative="1" as="geometry" />
        </mxCell>
        <mxCell id="9-0OQLkkKcLO5UEKQbR6-53" value="Tambah Data" style="ellipse;whiteSpace=wrap;html=1;" parent="1" vertex="1">
          <mxGeometry x="460" y="469" width="85" height="40" as="geometry" />
        </mxCell>
        <mxCell id="2N-OkwcJ0ExUMXTbMWaD-2" value="Use Case Direktur" style="text;html=1;strokeColor=none;fillColor=none;align=center;verticalAlign=middle;whiteSpace=wrap;rounded=0;" parent="1" vertex="1">
          <mxGeometry x="357.5" y="30" width="205" height="20" as="geometry" />
        </mxCell>
        <mxCell id="2N-OkwcJ0ExUMXTbMWaD-5" style="rounded=0;orthogonalLoop=1;jettySize=auto;html=1;dashed=1;" parent="1" source="2N-OkwcJ0ExUMXTbMWaD-4" target="9-0OQLkkKcLO5UEKQbR6-11" edge="1">
          <mxGeometry relative="1" as="geometry" />
        </mxCell>
        <mxCell id="2N-OkwcJ0ExUMXTbMWaD-4" value="Permohonan" style="ellipse;whiteSpace=wrap;html=1;" parent="1" vertex="1">
          <mxGeometry x="490" y="389" width="90" height="51" as="geometry" />
        </mxCell>
        <mxCell id="2N-OkwcJ0ExUMXTbMWaD-8" style="edgeStyle=none;rounded=0;orthogonalLoop=1;jettySize=auto;html=1;" parent="1" source="2N-OkwcJ0ExUMXTbMWaD-6" target="2N-OkwcJ0ExUMXTbMWaD-4" edge="1">
          <mxGeometry relative="1" as="geometry" />
        </mxCell>
        <mxCell id="2N-OkwcJ0ExUMXTbMWaD-6" value="Tambah Data" style="ellipse;whiteSpace=wrap;html=1;" parent="1" vertex="1">
          <mxGeometry x="617.5" y="399" width="85" height="40" as="geometry" />
        </mxCell>
        <mxCell id="2N-OkwcJ0ExUMXTbMWaD-9" style="edgeStyle=none;rounded=0;orthogonalLoop=1;jettySize=auto;html=1;" parent="1" source="2N-OkwcJ0ExUMXTbMWaD-7" target="2N-OkwcJ0ExUMXTbMWaD-4" edge="1">
          <mxGeometry relative="1" as="geometry" />
        </mxCell>
        <mxCell id="2N-OkwcJ0ExUMXTbMWaD-7" value="Melihat Data" style="ellipse;whiteSpace=wrap;html=1;" parent="1" vertex="1">
          <mxGeometry x="570" y="460" width="80" height="40" as="geometry" />
        </mxCell>
        <mxCell id="2N-OkwcJ0ExUMXTbMWaD-10" value="" style="swimlane;startSize=0;fillColor=#ffffff;" parent="1" vertex="1">
          <mxGeometry x="185" y="30" width="550" height="530" as="geometry" />
        </mxCell>
        <mxCell id="9-0OQLkkKcLO5UEKQbR6-25" value="Data Biaya Perjalanan" style="ellipse;whiteSpace=wrap;html=1;" parent="2N-OkwcJ0ExUMXTbMWaD-10" vertex="1">
          <mxGeometry x="225" y="170" width="100" height="40" as="geometry" />
        </mxCell>
        <mxCell id="9-0OQLkkKcLO5UEKQbR6-35" value="Melihat Data" style="ellipse;whiteSpace=wrap;html=1;" parent="2N-OkwcJ0ExUMXTbMWaD-10" vertex="1">
          <mxGeometry x="335" y="130" width="80" height="40" as="geometry" />
        </mxCell>
        <mxCell id="9-0OQLkkKcLO5UEKQbR6-36" style="edgeStyle=none;rounded=0;orthogonalLoop=1;jettySize=auto;html=1;endArrow=openThin;endFill=0;" parent="2N-OkwcJ0ExUMXTbMWaD-10" source="9-0OQLkkKcLO5UEKQbR6-35" target="9-0OQLkkKcLO5UEKQbR6-25" edge="1">
          <mxGeometry relative="1" as="geometry" />
        </mxCell>
        <mxCell id="9-0OQLkkKcLO5UEKQbR6-33" value="Cetak Data" style="ellipse;whiteSpace=wrap;html=1;" parent="2N-OkwcJ0ExUMXTbMWaD-10" vertex="1">
          <mxGeometry x="335" y="80" width="70" height="40" as="geometry" />
        </mxCell>
        <mxCell id="9-0OQLkkKcLO5UEKQbR6-34" style="edgeStyle=none;rounded=0;orthogonalLoop=1;jettySize=auto;html=1;endArrow=openThin;endFill=0;" parent="2N-OkwcJ0ExUMXTbMWaD-10" source="9-0OQLkkKcLO5UEKQbR6-33" target="9-0OQLkkKcLO5UEKQbR6-25" edge="1">
          <mxGeometry relative="1" as="geometry" />
        </mxCell>
        <mxCell id="9-0OQLkkKcLO5UEKQbR6-31" value="Tambah Data" style="ellipse;whiteSpace=wrap;html=1;" parent="2N-OkwcJ0ExUMXTbMWaD-10" vertex="1">
          <mxGeometry x="285" y="40" width="85" height="40" as="geometry" />
        </mxCell>
        <mxCell id="9-0OQLkkKcLO5UEKQbR6-32" style="edgeStyle=none;rounded=0;orthogonalLoop=1;jettySize=auto;html=1;endArrow=openThin;endFill=0;" parent="2N-OkwcJ0ExUMXTbMWaD-10" source="9-0OQLkkKcLO5UEKQbR6-31" target="9-0OQLkkKcLO5UEKQbR6-25" edge="1">
          <mxGeometry relative="1" as="geometry" />
        </mxCell>
        <mxCell id="9-0OQLkkKcLO5UEKQbR6-29" value="Hapus Data" style="ellipse;whiteSpace=wrap;html=1;" parent="2N-OkwcJ0ExUMXTbMWaD-10" vertex="1">
          <mxGeometry x="230" y="60" width="53" height="40" as="geometry" />
        </mxCell>
        <mxCell id="9-0OQLkkKcLO5UEKQbR6-30" style="edgeStyle=none;rounded=0;orthogonalLoop=1;jettySize=auto;html=1;endArrow=openThin;endFill=0;" parent="2N-OkwcJ0ExUMXTbMWaD-10" source="9-0OQLkkKcLO5UEKQbR6-29" target="9-0OQLkkKcLO5UEKQbR6-25" edge="1">
          <mxGeometry relative="1" as="geometry" />
        </mxCell>
        <mxCell id="9-0OQLkkKcLO5UEKQbR6-27" value="Ubah Data" style="ellipse;whiteSpace=wrap;html=1;" parent="2N-OkwcJ0ExUMXTbMWaD-10" vertex="1">
          <mxGeometry x="165" y="90" width="65" height="40" as="geometry" />
        </mxCell>
        <mxCell id="9-0OQLkkKcLO5UEKQbR6-28" style="edgeStyle=none;rounded=0;orthogonalLoop=1;jettySize=auto;html=1;endArrow=openThin;endFill=0;entryX=0;entryY=0;entryDx=0;entryDy=0;" parent="2N-OkwcJ0ExUMXTbMWaD-10" source="9-0OQLkkKcLO5UEKQbR6-27" target="9-0OQLkkKcLO5UEKQbR6-25" edge="1">
          <mxGeometry relative="1" as="geometry">
            <mxPoint x="195" y="199" as="targetPoint" />
          </mxGeometry>
        </mxCell>
        <mxCell id="zJp7o7V6sukcPG7aJ3fY-47" value="Surat Masuk" style="ellipse;whiteSpace=wrap;html=1;" parent="2N-OkwcJ0ExUMXTbMWaD-10" vertex="1">
          <mxGeometry x="110" y="160" width="75" height="61" as="geometry" />
        </mxCell>
        <mxCell id="zJp7o7V6sukcPG7aJ3fY-50" style="edgeStyle=none;rounded=0;orthogonalLoop=1;jettySize=auto;html=1;" parent="2N-OkwcJ0ExUMXTbMWaD-10" source="zJp7o7V6sukcPG7aJ3fY-49" target="zJp7o7V6sukcPG7aJ3fY-47" edge="1">
          <mxGeometry relative="1" as="geometry" />
        </mxCell>
        <mxCell id="zJp7o7V6sukcPG7aJ3fY-49" value="Melihat Data" style="ellipse;whiteSpace=wrap;html=1;" parent="2N-OkwcJ0ExUMXTbMWaD-10" vertex="1">
          <mxGeometry x="30" y="110" width="80" height="40" as="geometry" />
        </mxCell>
        <mxCell id="zJp7o7V6sukcPG7aJ3fY-4" style="edgeStyle=orthogonalEdgeStyle;rounded=0;orthogonalLoop=1;jettySize=auto;html=1;" parent="1" source="zJp7o7V6sukcPG7aJ3fY-2" target="zJp7o7V6sukcPG7aJ3fY-3" edge="1">
          <mxGeometry relative="1" as="geometry" />
        </mxCell>
        <mxCell id="zJp7o7V6sukcPG7aJ3fY-2" value="Pegawai" style="shape=umlActor;verticalLabelPosition=bottom;verticalAlign=top;html=1;" parent="1" vertex="1">
          <mxGeometry x="890" y="309" width="30" height="61" as="geometry" />
        </mxCell>
        <mxCell id="zJp7o7V6sukcPG7aJ3fY-6" value="" style="edgeStyle=orthogonalEdgeStyle;rounded=0;orthogonalLoop=1;jettySize=auto;html=1;" parent="1" source="zJp7o7V6sukcPG7aJ3fY-3" target="zJp7o7V6sukcPG7aJ3fY-5" edge="1">
          <mxGeometry relative="1" as="geometry" />
        </mxCell>
        <mxCell id="zJp7o7V6sukcPG7aJ3fY-3" value="Login" style="ellipse;whiteSpace=wrap;html=1;" parent="1" vertex="1">
          <mxGeometry x="990" y="315.25" width="70" height="47.5" as="geometry" />
        </mxCell>
        <mxCell id="zJp7o7V6sukcPG7aJ3fY-5" value="Dashboard&lt;span style=&quot;white-space: pre&quot;&gt;&lt;/span&gt;" style="ellipse;whiteSpace=wrap;html=1;" parent="1" vertex="1">
          <mxGeometry x="1110" y="315.25" width="70" height="47.5" as="geometry" />
        </mxCell>
        <mxCell id="zJp7o7V6sukcPG7aJ3fY-8" style="rounded=0;orthogonalLoop=1;jettySize=auto;html=1;entryX=0;entryY=1;entryDx=0;entryDy=0;dashed=1;" parent="1" source="zJp7o7V6sukcPG7aJ3fY-7" target="zJp7o7V6sukcPG7aJ3fY-5" edge="1">
          <mxGeometry relative="1" as="geometry" />
        </mxCell>
        <mxCell id="zJp7o7V6sukcPG7aJ3fY-7" value="Permohonan" style="ellipse;whiteSpace=wrap;html=1;" parent="1" vertex="1">
          <mxGeometry x="1040" y="379" width="80" height="41" as="geometry" />
        </mxCell>
        <mxCell id="zJp7o7V6sukcPG7aJ3fY-10" style="edgeStyle=none;rounded=0;orthogonalLoop=1;jettySize=auto;html=1;" parent="1" source="zJp7o7V6sukcPG7aJ3fY-9" target="zJp7o7V6sukcPG7aJ3fY-7" edge="1">
          <mxGeometry relative="1" as="geometry" />
        </mxCell>
        <mxCell id="zJp7o7V6sukcPG7aJ3fY-9" value="Melihat Data" style="ellipse;whiteSpace=wrap;html=1;" parent="1" vertex="1">
          <mxGeometry x="1010" y="450" width="80" height="40" as="geometry" />
        </mxCell>
        <mxCell id="zJp7o7V6sukcPG7aJ3fY-13" value="" style="edgeStyle=none;rounded=0;orthogonalLoop=1;jettySize=auto;html=1;dashed=1;entryX=0.5;entryY=0;entryDx=0;entryDy=0;" parent="1" source="zJp7o7V6sukcPG7aJ3fY-11" target="zJp7o7V6sukcPG7aJ3fY-5" edge="1">
          <mxGeometry relative="1" as="geometry" />
        </mxCell>
        <mxCell id="zJp7o7V6sukcPG7aJ3fY-11" value="Surat Masuk" style="ellipse;whiteSpace=wrap;html=1;" parent="1" vertex="1">
          <mxGeometry x="1105" y="234" width="80" height="47.5" as="geometry" />
        </mxCell>
        <mxCell id="zJp7o7V6sukcPG7aJ3fY-15" value="" style="edgeStyle=none;rounded=0;orthogonalLoop=1;jettySize=auto;html=1;" parent="1" source="zJp7o7V6sukcPG7aJ3fY-14" target="zJp7o7V6sukcPG7aJ3fY-11" edge="1">
          <mxGeometry relative="1" as="geometry" />
        </mxCell>
        <mxCell id="zJp7o7V6sukcPG7aJ3fY-14" value="Melihat Data" style="ellipse;whiteSpace=wrap;html=1;" parent="1" vertex="1">
          <mxGeometry x="1105" y="150" width="80" height="40" as="geometry" />
        </mxCell>
        <mxCell id="zJp7o7V6sukcPG7aJ3fY-17" style="edgeStyle=none;rounded=0;orthogonalLoop=1;jettySize=auto;html=1;dashed=1;" parent="1" source="zJp7o7V6sukcPG7aJ3fY-16" target="zJp7o7V6sukcPG7aJ3fY-5" edge="1">
          <mxGeometry relative="1" as="geometry" />
        </mxCell>
        <mxCell id="zJp7o7V6sukcPG7aJ3fY-16" value="Surat Tugas" style="ellipse;whiteSpace=wrap;html=1;" parent="1" vertex="1">
          <mxGeometry x="1205" y="262.33" width="85" height="46.67" as="geometry" />
        </mxCell>
        <mxCell id="zJp7o7V6sukcPG7aJ3fY-25" style="edgeStyle=none;rounded=0;orthogonalLoop=1;jettySize=auto;html=1;" parent="1" source="zJp7o7V6sukcPG7aJ3fY-20" target="zJp7o7V6sukcPG7aJ3fY-16" edge="1">
          <mxGeometry relative="1" as="geometry" />
        </mxCell>
        <mxCell id="zJp7o7V6sukcPG7aJ3fY-26" style="edgeStyle=none;rounded=0;orthogonalLoop=1;jettySize=auto;html=1;" parent="1" source="zJp7o7V6sukcPG7aJ3fY-21" target="zJp7o7V6sukcPG7aJ3fY-16" edge="1">
          <mxGeometry relative="1" as="geometry" />
        </mxCell>
        <mxCell id="zJp7o7V6sukcPG7aJ3fY-27" style="edgeStyle=none;rounded=0;orthogonalLoop=1;jettySize=auto;html=1;" parent="1" source="zJp7o7V6sukcPG7aJ3fY-22" target="zJp7o7V6sukcPG7aJ3fY-16" edge="1">
          <mxGeometry relative="1" as="geometry" />
        </mxCell>
        <mxCell id="zJp7o7V6sukcPG7aJ3fY-29" style="edgeStyle=none;rounded=0;orthogonalLoop=1;jettySize=auto;html=1;dashed=1;" parent="1" source="zJp7o7V6sukcPG7aJ3fY-28" target="zJp7o7V6sukcPG7aJ3fY-5" edge="1">
          <mxGeometry relative="1" as="geometry" />
        </mxCell>
        <mxCell id="zJp7o7V6sukcPG7aJ3fY-28" value="Data Biaya Perjalanan" style="ellipse;whiteSpace=wrap;html=1;" parent="1" vertex="1">
          <mxGeometry x="1205" y="329" width="100" height="40" as="geometry" />
        </mxCell>
        <mxCell id="zJp7o7V6sukcPG7aJ3fY-32" style="edgeStyle=none;rounded=0;orthogonalLoop=1;jettySize=auto;html=1;" parent="1" source="zJp7o7V6sukcPG7aJ3fY-30" target="zJp7o7V6sukcPG7aJ3fY-28" edge="1">
          <mxGeometry relative="1" as="geometry" />
        </mxCell>
        <mxCell id="zJp7o7V6sukcPG7aJ3fY-33" style="edgeStyle=none;rounded=0;orthogonalLoop=1;jettySize=auto;html=1;" parent="1" source="zJp7o7V6sukcPG7aJ3fY-31" target="zJp7o7V6sukcPG7aJ3fY-28" edge="1">
          <mxGeometry relative="1" as="geometry" />
        </mxCell>
        <mxCell id="zJp7o7V6sukcPG7aJ3fY-35" style="edgeStyle=none;rounded=0;orthogonalLoop=1;jettySize=auto;html=1;dashed=1;" parent="1" source="zJp7o7V6sukcPG7aJ3fY-34" target="zJp7o7V6sukcPG7aJ3fY-5" edge="1">
          <mxGeometry relative="1" as="geometry" />
        </mxCell>
        <mxCell id="zJp7o7V6sukcPG7aJ3fY-34" value="Data Nota Dinas" style="ellipse;whiteSpace=wrap;html=1;" parent="1" vertex="1">
          <mxGeometry x="1150" y="389" width="80" height="40" as="geometry" />
        </mxCell>
        <mxCell id="zJp7o7V6sukcPG7aJ3fY-40" style="edgeStyle=none;rounded=0;orthogonalLoop=1;jettySize=auto;html=1;" parent="1" source="zJp7o7V6sukcPG7aJ3fY-36" target="zJp7o7V6sukcPG7aJ3fY-34" edge="1">
          <mxGeometry relative="1" as="geometry" />
        </mxCell>
        <mxCell id="zJp7o7V6sukcPG7aJ3fY-41" style="edgeStyle=none;rounded=0;orthogonalLoop=1;jettySize=auto;html=1;entryX=1;entryY=1;entryDx=0;entryDy=0;" parent="1" source="zJp7o7V6sukcPG7aJ3fY-37" target="zJp7o7V6sukcPG7aJ3fY-34" edge="1">
          <mxGeometry relative="1" as="geometry" />
        </mxCell>
        <mxCell id="zJp7o7V6sukcPG7aJ3fY-42" value="" style="swimlane;startSize=0;fillColor=#ffffff;" parent="1" vertex="1">
          <mxGeometry x="950" y="50.00000000000001" width="538.49" height="518.91" as="geometry" />
        </mxCell>
        <mxCell id="zJp7o7V6sukcPG7aJ3fY-31" value="Melihat Data" style="ellipse;whiteSpace=wrap;html=1;" parent="zJp7o7V6sukcPG7aJ3fY-42" vertex="1">
          <mxGeometry x="360" y="353.91" width="90" height="40" as="geometry" />
        </mxCell>
        <mxCell id="zJp7o7V6sukcPG7aJ3fY-30" value="Cetak Data" style="ellipse;whiteSpace=wrap;html=1;" parent="zJp7o7V6sukcPG7aJ3fY-42" vertex="1">
          <mxGeometry x="420" y="273.91" width="85" height="40" as="geometry" />
        </mxCell>
        <mxCell id="zJp7o7V6sukcPG7aJ3fY-22" value="Melihat Data" style="ellipse;whiteSpace=wrap;html=1;" parent="zJp7o7V6sukcPG7aJ3fY-42" vertex="1">
          <mxGeometry x="390" y="212.32999999999998" width="90" height="40" as="geometry" />
        </mxCell>
        <mxCell id="zJp7o7V6sukcPG7aJ3fY-21" value="Cetak Data" style="ellipse;whiteSpace=wrap;html=1;" parent="zJp7o7V6sukcPG7aJ3fY-42" vertex="1">
          <mxGeometry x="390" y="143.91" width="85" height="40" as="geometry" />
        </mxCell>
        <mxCell id="zJp7o7V6sukcPG7aJ3fY-44" value="Use Case Pegawai" style="text;html=1;strokeColor=none;fillColor=none;align=center;verticalAlign=middle;whiteSpace=wrap;rounded=0;" parent="zJp7o7V6sukcPG7aJ3fY-42" vertex="1">
          <mxGeometry x="166.74" width="205" height="20" as="geometry" />
        </mxCell>
        <mxCell id="zJp7o7V6sukcPG7aJ3fY-20" value="Tambah Data" style="ellipse;whiteSpace=wrap;html=1;" parent="zJp7o7V6sukcPG7aJ3fY-42" vertex="1">
          <mxGeometry x="275" y="123.91" width="85" height="40" as="geometry" />
        </mxCell>
        <mxCell id="zJp7o7V6sukcPG7aJ3fY-45" value="Logout" style="ellipse;whiteSpace=wrap;html=1;" parent="zJp7o7V6sukcPG7aJ3fY-42" vertex="1">
          <mxGeometry x="70" y="183.90999999999997" width="60" height="40" as="geometry" />
        </mxCell>
        <mxCell id="zJp7o7V6sukcPG7aJ3fY-37" value="Melihat Data" style="ellipse;whiteSpace=wrap;html=1;" parent="zJp7o7V6sukcPG7aJ3fY-42" vertex="1">
          <mxGeometry x="300" y="393.91" width="90" height="40" as="geometry" />
        </mxCell>
        <mxCell id="zJp7o7V6sukcPG7aJ3fY-36" value="Cetak Data" style="ellipse;whiteSpace=wrap;html=1;" parent="zJp7o7V6sukcPG7aJ3fY-42" vertex="1">
          <mxGeometry x="250" y="433.90999999999997" width="85" height="40" as="geometry" />
        </mxCell>
        <mxCell id="zJp7o7V6sukcPG7aJ3fY-51" value="Tambah Data" style="ellipse;whiteSpace=wrap;html=1;" parent="zJp7o7V6sukcPG7aJ3fY-42" vertex="1">
          <mxGeometry x="150" y="420" width="85" height="40" as="geometry" />
        </mxCell>
        <mxCell id="zJp7o7V6sukcPG7aJ3fY-46" style="edgeStyle=none;rounded=0;orthogonalLoop=1;jettySize=auto;html=1;dashed=1;" parent="1" source="zJp7o7V6sukcPG7aJ3fY-45" target="zJp7o7V6sukcPG7aJ3fY-5" edge="1">
          <mxGeometry relative="1" as="geometry" />
        </mxCell>
        <mxCell id="zJp7o7V6sukcPG7aJ3fY-48" style="edgeStyle=none;rounded=0;orthogonalLoop=1;jettySize=auto;html=1;dashed=1;" parent="1" source="zJp7o7V6sukcPG7aJ3fY-47" target="9-0OQLkkKcLO5UEKQbR6-11" edge="1">
          <mxGeometry relative="1" as="geometry" />
        </mxCell>
        <mxCell id="zJp7o7V6sukcPG7aJ3fY-52" style="edgeStyle=none;rounded=0;orthogonalLoop=1;jettySize=auto;html=1;" parent="1" source="zJp7o7V6sukcPG7aJ3fY-51" target="zJp7o7V6sukcPG7aJ3fY-34" edge="1">
          <mxGeometry relative="1" as="geometry" />
        </mxCell>
        <mxCell id="fPzmJ7Ew2btwY1fmSqvh-4" style="edgeStyle=orthogonalEdgeStyle;rounded=0;orthogonalLoop=1;jettySize=auto;html=1;entryX=0;entryY=0.5;entryDx=0;entryDy=0;" edge="1" parent="1" source="fPzmJ7Ew2btwY1fmSqvh-1" target="fPzmJ7Ew2btwY1fmSqvh-2">
          <mxGeometry relative="1" as="geometry" />
        </mxCell>
        <mxCell id="fPzmJ7Ew2btwY1fmSqvh-1" value="Kasubbag&lt;span style=&quot;white-space: pre&quot;&gt;&lt;/span&gt;" style="shape=umlActor;verticalLabelPosition=bottom;verticalAlign=top;html=1;" vertex="1" parent="1">
          <mxGeometry x="95" y="915" width="30" height="60" as="geometry" />
        </mxCell>
        <mxCell id="fPzmJ7Ew2btwY1fmSqvh-5" style="edgeStyle=orthogonalEdgeStyle;rounded=0;orthogonalLoop=1;jettySize=auto;html=1;" edge="1" parent="1" source="fPzmJ7Ew2btwY1fmSqvh-2" target="fPzmJ7Ew2btwY1fmSqvh-3">
          <mxGeometry relative="1" as="geometry" />
        </mxCell>
        <mxCell id="fPzmJ7Ew2btwY1fmSqvh-2" value="Login" style="ellipse;whiteSpace=wrap;html=1;" vertex="1" parent="1">
          <mxGeometry x="230" y="921.25" width="70" height="47.5" as="geometry" />
        </mxCell>
        <mxCell id="fPzmJ7Ew2btwY1fmSqvh-3" value="Dashboard" style="ellipse;whiteSpace=wrap;html=1;" vertex="1" parent="1">
          <mxGeometry x="395" y="922.5" width="70" height="45" as="geometry" />
        </mxCell>
        <mxCell id="fPzmJ7Ew2btwY1fmSqvh-7" style="rounded=0;orthogonalLoop=1;jettySize=auto;html=1;dashed=1;" edge="1" parent="1" source="fPzmJ7Ew2btwY1fmSqvh-6" target="fPzmJ7Ew2btwY1fmSqvh-2">
          <mxGeometry relative="1" as="geometry" />
        </mxCell>
        <mxCell id="fPzmJ7Ew2btwY1fmSqvh-6" value="Lupa kata sandi" style="ellipse;whiteSpace=wrap;html=1;" vertex="1" parent="1">
          <mxGeometry x="235" y="1025" width="70" height="50" as="geometry" />
        </mxCell>
        <mxCell id="fPzmJ7Ew2btwY1fmSqvh-9" style="edgeStyle=none;rounded=0;orthogonalLoop=1;jettySize=auto;html=1;dashed=1;" edge="1" parent="1" source="fPzmJ7Ew2btwY1fmSqvh-8" target="fPzmJ7Ew2btwY1fmSqvh-3">
          <mxGeometry relative="1" as="geometry" />
        </mxCell>
        <mxCell id="fPzmJ7Ew2btwY1fmSqvh-8" value="Logout" style="ellipse;whiteSpace=wrap;html=1;" vertex="1" parent="1">
          <mxGeometry x="235" y="845" width="60" height="40" as="geometry" />
        </mxCell>
        <mxCell id="fPzmJ7Ew2btwY1fmSqvh-11" style="edgeStyle=none;rounded=0;orthogonalLoop=1;jettySize=auto;html=1;dashed=1;" edge="1" parent="1" source="fPzmJ7Ew2btwY1fmSqvh-10" target="fPzmJ7Ew2btwY1fmSqvh-3">
          <mxGeometry relative="1" as="geometry" />
        </mxCell>
        <mxCell id="fPzmJ7Ew2btwY1fmSqvh-10" value="Data pegawai" style="ellipse;whiteSpace=wrap;html=1;" vertex="1" parent="1">
          <mxGeometry x="315" y="1045" width="85" height="40" as="geometry" />
        </mxCell>
        <mxCell id="fPzmJ7Ew2btwY1fmSqvh-14" style="edgeStyle=none;rounded=0;orthogonalLoop=1;jettySize=auto;html=1;" edge="1" parent="1" source="fPzmJ7Ew2btwY1fmSqvh-13" target="fPzmJ7Ew2btwY1fmSqvh-10">
          <mxGeometry relative="1" as="geometry" />
        </mxCell>
        <mxCell id="fPzmJ7Ew2btwY1fmSqvh-13" value="Melihat data" style="ellipse;whiteSpace=wrap;html=1;" vertex="1" parent="1">
          <mxGeometry x="285" y="1105" width="80" height="30" as="geometry" />
        </mxCell>
        <mxCell id="fPzmJ7Ew2btwY1fmSqvh-16" style="edgeStyle=none;rounded=0;orthogonalLoop=1;jettySize=auto;html=1;entryX=0.5;entryY=0;entryDx=0;entryDy=0;dashed=1;" edge="1" parent="1" source="fPzmJ7Ew2btwY1fmSqvh-15" target="fPzmJ7Ew2btwY1fmSqvh-3">
          <mxGeometry relative="1" as="geometry" />
        </mxCell>
        <mxCell id="fPzmJ7Ew2btwY1fmSqvh-15" value="Data Direktur" style="ellipse;whiteSpace=wrap;html=1;" vertex="1" parent="1">
          <mxGeometry x="362.5" y="775" width="72.5" height="50" as="geometry" />
        </mxCell>
        <mxCell id="fPzmJ7Ew2btwY1fmSqvh-22" style="edgeStyle=none;rounded=0;orthogonalLoop=1;jettySize=auto;html=1;" edge="1" parent="1" source="fPzmJ7Ew2btwY1fmSqvh-19" target="fPzmJ7Ew2btwY1fmSqvh-15">
          <mxGeometry relative="1" as="geometry" />
        </mxCell>
        <mxCell id="fPzmJ7Ew2btwY1fmSqvh-19" value="Melihat data" style="ellipse;whiteSpace=wrap;html=1;" vertex="1" parent="1">
          <mxGeometry x="228.75" y="755" width="62.5" height="40" as="geometry" />
        </mxCell>
        <mxCell id="fPzmJ7Ew2btwY1fmSqvh-23" style="edgeStyle=none;rounded=0;orthogonalLoop=1;jettySize=auto;html=1;entryX=0.5;entryY=0;entryDx=0;entryDy=0;" edge="1" parent="1" source="fPzmJ7Ew2btwY1fmSqvh-20" target="fPzmJ7Ew2btwY1fmSqvh-15">
          <mxGeometry relative="1" as="geometry" />
        </mxCell>
        <mxCell id="fPzmJ7Ew2btwY1fmSqvh-20" value="Cetak Data" style="ellipse;whiteSpace=wrap;html=1;" vertex="1" parent="1">
          <mxGeometry x="305" y="685" width="70" height="40" as="geometry" />
        </mxCell>
        <mxCell id="fPzmJ7Ew2btwY1fmSqvh-24" style="edgeStyle=none;rounded=0;orthogonalLoop=1;jettySize=auto;html=1;" edge="1" parent="1" source="fPzmJ7Ew2btwY1fmSqvh-21" target="fPzmJ7Ew2btwY1fmSqvh-15">
          <mxGeometry relative="1" as="geometry" />
        </mxCell>
        <mxCell id="fPzmJ7Ew2btwY1fmSqvh-21" value="Tambah Data" style="ellipse;whiteSpace=wrap;html=1;" vertex="1" parent="1">
          <mxGeometry x="410" y="680" width="65" height="50" as="geometry" />
        </mxCell>
        <mxCell id="fPzmJ7Ew2btwY1fmSqvh-26" style="edgeStyle=none;rounded=0;orthogonalLoop=1;jettySize=auto;html=1;entryX=1;entryY=0;entryDx=0;entryDy=0;dashed=1;" edge="1" parent="1" source="fPzmJ7Ew2btwY1fmSqvh-25" target="fPzmJ7Ew2btwY1fmSqvh-3">
          <mxGeometry relative="1" as="geometry" />
        </mxCell>
        <mxCell id="fPzmJ7Ew2btwY1fmSqvh-25" value="Permohonan" style="ellipse;whiteSpace=wrap;html=1;" vertex="1" parent="1">
          <mxGeometry x="477.5" y="784" width="90" height="51" as="geometry" />
        </mxCell>
        <mxCell id="fPzmJ7Ew2btwY1fmSqvh-29" value="" style="edgeStyle=none;rounded=0;orthogonalLoop=1;jettySize=auto;html=1;" edge="1" parent="1" source="fPzmJ7Ew2btwY1fmSqvh-27" target="fPzmJ7Ew2btwY1fmSqvh-25">
          <mxGeometry relative="1" as="geometry" />
        </mxCell>
        <mxCell id="fPzmJ7Ew2btwY1fmSqvh-27" value="Melihat Data" style="ellipse;whiteSpace=wrap;html=1;" vertex="1" parent="1">
          <mxGeometry x="515" y="685" width="60" height="50" as="geometry" />
        </mxCell>
        <mxCell id="fPzmJ7Ew2btwY1fmSqvh-31" style="edgeStyle=none;rounded=0;orthogonalLoop=1;jettySize=auto;html=1;" edge="1" parent="1" source="fPzmJ7Ew2btwY1fmSqvh-30" target="fPzmJ7Ew2btwY1fmSqvh-25">
          <mxGeometry relative="1" as="geometry" />
        </mxCell>
        <mxCell id="fPzmJ7Ew2btwY1fmSqvh-30" value="Edit Data" style="ellipse;whiteSpace=wrap;html=1;" vertex="1" parent="1">
          <mxGeometry x="605" y="695" width="60" height="50" as="geometry" />
        </mxCell>
        <mxCell id="fPzmJ7Ew2btwY1fmSqvh-33" style="edgeStyle=none;rounded=0;orthogonalLoop=1;jettySize=auto;html=1;entryX=1;entryY=0.5;entryDx=0;entryDy=0;" edge="1" parent="1" source="fPzmJ7Ew2btwY1fmSqvh-32" target="fPzmJ7Ew2btwY1fmSqvh-25">
          <mxGeometry relative="1" as="geometry" />
        </mxCell>
        <mxCell id="fPzmJ7Ew2btwY1fmSqvh-32" value="Hapus Data" style="ellipse;whiteSpace=wrap;html=1;" vertex="1" parent="1">
          <mxGeometry x="675" y="750" width="60" height="50" as="geometry" />
        </mxCell>
        <mxCell id="fPzmJ7Ew2btwY1fmSqvh-47" style="edgeStyle=none;rounded=0;orthogonalLoop=1;jettySize=auto;html=1;dashed=1;" edge="1" parent="1" source="fPzmJ7Ew2btwY1fmSqvh-35" target="fPzmJ7Ew2btwY1fmSqvh-3">
          <mxGeometry relative="1" as="geometry" />
        </mxCell>
        <mxCell id="fPzmJ7Ew2btwY1fmSqvh-35" value="Surat Masuk" style="ellipse;whiteSpace=wrap;html=1;" vertex="1" parent="1">
          <mxGeometry x="525" y="845" width="65" height="50" as="geometry" />
        </mxCell>
        <mxCell id="fPzmJ7Ew2btwY1fmSqvh-38" style="edgeStyle=none;rounded=0;orthogonalLoop=1;jettySize=auto;html=1;" edge="1" parent="1" source="fPzmJ7Ew2btwY1fmSqvh-37" target="fPzmJ7Ew2btwY1fmSqvh-35">
          <mxGeometry relative="1" as="geometry" />
        </mxCell>
        <mxCell id="fPzmJ7Ew2btwY1fmSqvh-37" value="Melihat Data" style="ellipse;whiteSpace=wrap;html=1;" vertex="1" parent="1">
          <mxGeometry x="675" y="845" width="60" height="50" as="geometry" />
        </mxCell>
        <mxCell id="fPzmJ7Ew2btwY1fmSqvh-40" style="edgeStyle=none;rounded=0;orthogonalLoop=1;jettySize=auto;html=1;entryX=1;entryY=1;entryDx=0;entryDy=0;dashed=1;" edge="1" parent="1" source="fPzmJ7Ew2btwY1fmSqvh-39" target="fPzmJ7Ew2btwY1fmSqvh-3">
          <mxGeometry relative="1" as="geometry" />
        </mxCell>
        <mxCell id="fPzmJ7Ew2btwY1fmSqvh-39" value="Surat Tugas" style="ellipse;whiteSpace=wrap;html=1;" vertex="1" parent="1">
          <mxGeometry x="445" y="995" width="65" height="50" as="geometry" />
        </mxCell>
        <mxCell id="fPzmJ7Ew2btwY1fmSqvh-42" style="edgeStyle=none;rounded=0;orthogonalLoop=1;jettySize=auto;html=1;entryX=1;entryY=1;entryDx=0;entryDy=0;" edge="1" parent="1" source="fPzmJ7Ew2btwY1fmSqvh-41" target="fPzmJ7Ew2btwY1fmSqvh-39">
          <mxGeometry relative="1" as="geometry">
            <mxPoint x="510" y="1045" as="targetPoint" />
          </mxGeometry>
        </mxCell>
        <mxCell id="fPzmJ7Ew2btwY1fmSqvh-41" value="Melihat Data" style="ellipse;whiteSpace=wrap;html=1;" vertex="1" parent="1">
          <mxGeometry x="515" y="1105" width="60" height="50" as="geometry" />
        </mxCell>
        <mxCell id="fPzmJ7Ew2btwY1fmSqvh-44" style="edgeStyle=none;rounded=0;orthogonalLoop=1;jettySize=auto;html=1;" edge="1" parent="1" source="fPzmJ7Ew2btwY1fmSqvh-43" target="fPzmJ7Ew2btwY1fmSqvh-39">
          <mxGeometry relative="1" as="geometry" />
        </mxCell>
        <mxCell id="fPzmJ7Ew2btwY1fmSqvh-43" value="Cetak Data" style="ellipse;whiteSpace=wrap;html=1;" vertex="1" parent="1">
          <mxGeometry x="400" y="1105" width="70" height="40" as="geometry" />
        </mxCell>
        <mxCell id="fPzmJ7Ew2btwY1fmSqvh-50" style="edgeStyle=none;rounded=0;orthogonalLoop=1;jettySize=auto;html=1;dashed=1;" edge="1" parent="1" source="fPzmJ7Ew2btwY1fmSqvh-48" target="fPzmJ7Ew2btwY1fmSqvh-3">
          <mxGeometry relative="1" as="geometry" />
        </mxCell>
        <mxCell id="fPzmJ7Ew2btwY1fmSqvh-48" value="Data Rincian" style="ellipse;whiteSpace=wrap;html=1;" vertex="1" parent="1">
          <mxGeometry x="497.5" y="955" width="85" height="57.5" as="geometry" />
        </mxCell>
        <mxCell id="fPzmJ7Ew2btwY1fmSqvh-52" style="edgeStyle=none;rounded=0;orthogonalLoop=1;jettySize=auto;html=1;" edge="1" parent="1" source="fPzmJ7Ew2btwY1fmSqvh-51" target="fPzmJ7Ew2btwY1fmSqvh-48">
          <mxGeometry relative="1" as="geometry" />
        </mxCell>
        <mxCell id="fPzmJ7Ew2btwY1fmSqvh-51" value="Melihat Data" style="ellipse;whiteSpace=wrap;html=1;" vertex="1" parent="1">
          <mxGeometry x="605" y="1005" width="60" height="50" as="geometry" />
        </mxCell>
        <mxCell id="fPzmJ7Ew2btwY1fmSqvh-54" value="" style="edgeStyle=none;rounded=0;orthogonalLoop=1;jettySize=auto;html=1;" edge="1" parent="1" source="fPzmJ7Ew2btwY1fmSqvh-53" target="fPzmJ7Ew2btwY1fmSqvh-48">
          <mxGeometry relative="1" as="geometry" />
        </mxCell>
        <mxCell id="fPzmJ7Ew2btwY1fmSqvh-53" value="Cetak Data" style="ellipse;whiteSpace=wrap;html=1;" vertex="1" parent="1">
          <mxGeometry x="535" y="1040" width="70" height="50" as="geometry" />
        </mxCell>
        <mxCell id="fPzmJ7Ew2btwY1fmSqvh-56" style="edgeStyle=none;rounded=0;orthogonalLoop=1;jettySize=auto;html=1;dashed=1;" edge="1" parent="1" source="fPzmJ7Ew2btwY1fmSqvh-55" target="fPzmJ7Ew2btwY1fmSqvh-3">
          <mxGeometry relative="1" as="geometry" />
        </mxCell>
        <mxCell id="fPzmJ7Ew2btwY1fmSqvh-55" value="Nota Dinas" style="ellipse;whiteSpace=wrap;html=1;" vertex="1" parent="1">
          <mxGeometry x="582.5" y="895" width="80" height="50" as="geometry" />
        </mxCell>
        <mxCell id="fPzmJ7Ew2btwY1fmSqvh-58" style="edgeStyle=none;rounded=0;orthogonalLoop=1;jettySize=auto;html=1;" edge="1" parent="1" source="fPzmJ7Ew2btwY1fmSqvh-57" target="fPzmJ7Ew2btwY1fmSqvh-55">
          <mxGeometry relative="1" as="geometry" />
        </mxCell>
        <mxCell id="fPzmJ7Ew2btwY1fmSqvh-57" value="Melihat Data" style="ellipse;whiteSpace=wrap;html=1;" vertex="1" parent="1">
          <mxGeometry x="715" y="910" width="85" height="50" as="geometry" />
        </mxCell>
        <mxCell id="fPzmJ7Ew2btwY1fmSqvh-60" style="edgeStyle=none;rounded=0;orthogonalLoop=1;jettySize=auto;html=1;entryX=0.756;entryY=0.92;entryDx=0;entryDy=0;entryPerimeter=0;" edge="1" parent="1" source="fPzmJ7Ew2btwY1fmSqvh-59" target="fPzmJ7Ew2btwY1fmSqvh-55">
          <mxGeometry relative="1" as="geometry" />
        </mxCell>
        <mxCell id="fPzmJ7Ew2btwY1fmSqvh-59" value="Ubah Data" style="ellipse;whiteSpace=wrap;html=1;" vertex="1" parent="1">
          <mxGeometry x="685" y="975" width="70" height="50" as="geometry" />
        </mxCell>
        <mxCell id="fPzmJ7Ew2btwY1fmSqvh-61" value="" style="whiteSpace=wrap;html=1;aspect=fixed;fillColor=none;" vertex="1" parent="1">
          <mxGeometry x="185" y="580" width="620" height="620" as="geometry" />
        </mxCell>
        <mxCell id="fPzmJ7Ew2btwY1fmSqvh-62" value="Use Case Kepala Suku Bagian Umum" style="text;html=1;strokeColor=none;fillColor=none;align=center;verticalAlign=middle;whiteSpace=wrap;rounded=0;" vertex="1" parent="1">
          <mxGeometry x="361.25" y="580" width="232.5" height="20" as="geometry" />
        </mxCell>
        <mxCell id="fPzmJ7Ew2btwY1fmSqvh-65" value="" style="edgeStyle=none;rounded=0;orthogonalLoop=1;jettySize=auto;html=1;" edge="1" parent="1" source="fPzmJ7Ew2btwY1fmSqvh-63" target="fPzmJ7Ew2btwY1fmSqvh-64">
          <mxGeometry relative="1" as="geometry" />
        </mxCell>
        <mxCell id="fPzmJ7Ew2btwY1fmSqvh-63" value="Kepala Kantor" style="shape=umlActor;verticalLabelPosition=bottom;verticalAlign=top;html=1;outlineConnect=0;fillColor=none;" vertex="1" parent="1">
          <mxGeometry x="900" y="869" width="30" height="60" as="geometry" />
        </mxCell>
        <mxCell id="fPzmJ7Ew2btwY1fmSqvh-67" value="" style="edgeStyle=none;rounded=0;orthogonalLoop=1;jettySize=auto;html=1;" edge="1" parent="1" source="fPzmJ7Ew2btwY1fmSqvh-64" target="fPzmJ7Ew2btwY1fmSqvh-66">
          <mxGeometry relative="1" as="geometry" />
        </mxCell>
        <mxCell id="fPzmJ7Ew2btwY1fmSqvh-64" value="Login" style="ellipse;whiteSpace=wrap;html=1;verticalAlign=middle;" vertex="1" parent="1">
          <mxGeometry x="1090" y="882.5" width="70" height="35" as="geometry" />
        </mxCell>
        <mxCell id="fPzmJ7Ew2btwY1fmSqvh-66" value="Dashboard" style="ellipse;whiteSpace=wrap;html=1;verticalAlign=middle;" vertex="1" parent="1">
          <mxGeometry x="1230" y="874.38" width="82.5" height="51.25" as="geometry" />
        </mxCell>
        <mxCell id="fPzmJ7Ew2btwY1fmSqvh-68" value="Data pegawai" style="ellipse;whiteSpace=wrap;html=1;" vertex="1" parent="1">
          <mxGeometry x="396.25" y="399" width="85" height="40" as="geometry" />
        </mxCell>
        <mxCell id="fPzmJ7Ew2btwY1fmSqvh-69" value="Melihat data" style="ellipse;whiteSpace=wrap;html=1;" vertex="1" parent="1">
          <mxGeometry x="316.25" y="439" width="80" height="30" as="geometry" />
        </mxCell>
        <mxCell id="fPzmJ7Ew2btwY1fmSqvh-80" style="edgeStyle=none;rounded=0;orthogonalLoop=1;jettySize=auto;html=1;" edge="1" parent="1" source="fPzmJ7Ew2btwY1fmSqvh-70" target="fPzmJ7Ew2btwY1fmSqvh-75">
          <mxGeometry relative="1" as="geometry" />
        </mxCell>
        <mxCell id="fPzmJ7Ew2btwY1fmSqvh-70" value="Cetak Data" style="ellipse;whiteSpace=wrap;html=1;" vertex="1" parent="1">
          <mxGeometry x="1090" y="1105" width="70" height="40" as="geometry" />
        </mxCell>
        <mxCell id="fPzmJ7Ew2btwY1fmSqvh-77" style="edgeStyle=none;rounded=0;orthogonalLoop=1;jettySize=auto;html=1;dashed=1;" edge="1" parent="1" source="fPzmJ7Ew2btwY1fmSqvh-75" target="fPzmJ7Ew2btwY1fmSqvh-66">
          <mxGeometry relative="1" as="geometry" />
        </mxCell>
        <mxCell id="fPzmJ7Ew2btwY1fmSqvh-75" value="Data pegawai" style="ellipse;whiteSpace=wrap;html=1;" vertex="1" parent="1">
          <mxGeometry x="1165" y="945" width="85" height="40" as="geometry" />
        </mxCell>
        <mxCell id="fPzmJ7Ew2btwY1fmSqvh-81" style="edgeStyle=none;rounded=0;orthogonalLoop=1;jettySize=auto;html=1;entryX=0.612;entryY=0.975;entryDx=0;entryDy=0;entryPerimeter=0;" edge="1" parent="1" source="fPzmJ7Ew2btwY1fmSqvh-76" target="fPzmJ7Ew2btwY1fmSqvh-75">
          <mxGeometry relative="1" as="geometry" />
        </mxCell>
        <mxCell id="fPzmJ7Ew2btwY1fmSqvh-76" value="Tambah Data" style="ellipse;whiteSpace=wrap;html=1;" vertex="1" parent="1">
          <mxGeometry x="1150" y="1146" width="75" height="45" as="geometry" />
        </mxCell>
        <mxCell id="fPzmJ7Ew2btwY1fmSqvh-83" style="edgeStyle=none;rounded=0;orthogonalLoop=1;jettySize=auto;html=1;entryX=1;entryY=1;entryDx=0;entryDy=0;" edge="1" parent="1" source="fPzmJ7Ew2btwY1fmSqvh-82" target="fPzmJ7Ew2btwY1fmSqvh-75">
          <mxGeometry relative="1" as="geometry" />
        </mxCell>
        <mxCell id="fPzmJ7Ew2btwY1fmSqvh-82" value="Ubah Data" style="ellipse;whiteSpace=wrap;html=1;" vertex="1" parent="1">
          <mxGeometry x="1212.5" y="1090" width="70" height="55" as="geometry" />
        </mxCell>
        <mxCell id="fPzmJ7Ew2btwY1fmSqvh-84" style="edgeStyle=none;rounded=0;orthogonalLoop=1;jettySize=auto;html=1;entryX=0;entryY=1;entryDx=0;entryDy=0;" edge="1" source="fPzmJ7Ew2btwY1fmSqvh-85" parent="1" target="fPzmJ7Ew2btwY1fmSqvh-75">
          <mxGeometry relative="1" as="geometry">
            <mxPoint x="1241.1748552249642" y="1054.276842170274" as="targetPoint" />
          </mxGeometry>
        </mxCell>
        <mxCell id="fPzmJ7Ew2btwY1fmSqvh-85" value="Cetak Data" style="ellipse;whiteSpace=wrap;html=1;" vertex="1" parent="1">
          <mxGeometry x="1050" y="1055" width="70" height="40" as="geometry" />
        </mxCell>
        <mxCell id="fPzmJ7Ew2btwY1fmSqvh-86" style="edgeStyle=none;rounded=0;orthogonalLoop=1;jettySize=auto;html=1;" edge="1" source="fPzmJ7Ew2btwY1fmSqvh-87" parent="1" target="fPzmJ7Ew2btwY1fmSqvh-75">
          <mxGeometry relative="1" as="geometry">
            <mxPoint x="1180" y="1045" as="targetPoint" />
          </mxGeometry>
        </mxCell>
        <mxCell id="fPzmJ7Ew2btwY1fmSqvh-87" value="Melihat data" style="ellipse;whiteSpace=wrap;html=1;" vertex="1" parent="1">
          <mxGeometry x="1045" y="995" width="65" height="42.5" as="geometry" />
        </mxCell>
        <mxCell id="fPzmJ7Ew2btwY1fmSqvh-106" style="edgeStyle=none;rounded=0;orthogonalLoop=1;jettySize=auto;html=1;" edge="1" parent="1" source="fPzmJ7Ew2btwY1fmSqvh-93" target="fPzmJ7Ew2btwY1fmSqvh-101">
          <mxGeometry relative="1" as="geometry" />
        </mxCell>
        <mxCell id="fPzmJ7Ew2btwY1fmSqvh-93" value="Cetak Data" style="ellipse;whiteSpace=wrap;html=1;" vertex="1" parent="1">
          <mxGeometry x="1045" y="725" width="70" height="40" as="geometry" />
        </mxCell>
        <mxCell id="fPzmJ7Ew2btwY1fmSqvh-105" style="edgeStyle=none;rounded=0;orthogonalLoop=1;jettySize=auto;html=1;" edge="1" parent="1" source="fPzmJ7Ew2btwY1fmSqvh-95" target="fPzmJ7Ew2btwY1fmSqvh-101">
          <mxGeometry relative="1" as="geometry" />
        </mxCell>
        <mxCell id="fPzmJ7Ew2btwY1fmSqvh-95" value="Melihat data" style="ellipse;whiteSpace=wrap;html=1;" vertex="1" parent="1">
          <mxGeometry x="1035" y="776.5" width="65" height="42.5" as="geometry" />
        </mxCell>
        <mxCell id="fPzmJ7Ew2btwY1fmSqvh-107" style="edgeStyle=none;rounded=0;orthogonalLoop=1;jettySize=auto;html=1;exitX=0.613;exitY=0.989;exitDx=0;exitDy=0;exitPerimeter=0;" edge="1" parent="1" source="fPzmJ7Ew2btwY1fmSqvh-97" target="fPzmJ7Ew2btwY1fmSqvh-101">
          <mxGeometry relative="1" as="geometry">
            <mxPoint x="1152.6239023927174" y="739.7889754083208" as="sourcePoint" />
          </mxGeometry>
        </mxCell>
        <mxCell id="fPzmJ7Ew2btwY1fmSqvh-97" value="Tambah Data" style="ellipse;whiteSpace=wrap;html=1;" vertex="1" parent="1">
          <mxGeometry x="1105" y="687.5" width="75" height="45" as="geometry" />
        </mxCell>
        <mxCell id="fPzmJ7Ew2btwY1fmSqvh-108" style="edgeStyle=none;rounded=0;orthogonalLoop=1;jettySize=auto;html=1;" edge="1" parent="1" source="fPzmJ7Ew2btwY1fmSqvh-99" target="fPzmJ7Ew2btwY1fmSqvh-101">
          <mxGeometry relative="1" as="geometry">
            <mxPoint x="1213.7946023285676" y="738.5525495860802" as="sourcePoint" />
          </mxGeometry>
        </mxCell>
        <mxCell id="fPzmJ7Ew2btwY1fmSqvh-99" value="Ubah Data" style="ellipse;whiteSpace=wrap;html=1;" vertex="1" parent="1">
          <mxGeometry x="1185" y="670" width="60" height="55" as="geometry" />
        </mxCell>
        <mxCell id="fPzmJ7Ew2btwY1fmSqvh-104" style="edgeStyle=none;rounded=0;orthogonalLoop=1;jettySize=auto;html=1;dashed=1;" edge="1" parent="1" source="fPzmJ7Ew2btwY1fmSqvh-101" target="fPzmJ7Ew2btwY1fmSqvh-66">
          <mxGeometry relative="1" as="geometry" />
        </mxCell>
        <mxCell id="fPzmJ7Ew2btwY1fmSqvh-101" value="&lt;div&gt;Data Direktur&lt;/div&gt;" style="ellipse;whiteSpace=wrap;html=1;verticalAlign=middle;" vertex="1" parent="1">
          <mxGeometry x="1132.5" y="805" width="82.5" height="51.25" as="geometry" />
        </mxCell>
        <mxCell id="fPzmJ7Ew2btwY1fmSqvh-113" style="edgeStyle=none;rounded=0;orthogonalLoop=1;jettySize=auto;html=1;dashed=1;" edge="1" parent="1" source="fPzmJ7Ew2btwY1fmSqvh-109" target="fPzmJ7Ew2btwY1fmSqvh-66">
          <mxGeometry relative="1" as="geometry" />
        </mxCell>
        <mxCell id="fPzmJ7Ew2btwY1fmSqvh-109" value="Permohonan" style="ellipse;whiteSpace=wrap;html=1;" vertex="1" parent="1">
          <mxGeometry x="1275" y="990.75" width="80" height="51" as="geometry" />
        </mxCell>
        <mxCell id="fPzmJ7Ew2btwY1fmSqvh-114" style="edgeStyle=none;rounded=0;orthogonalLoop=1;jettySize=auto;html=1;" edge="1" parent="1" source="fPzmJ7Ew2btwY1fmSqvh-110" target="fPzmJ7Ew2btwY1fmSqvh-109">
          <mxGeometry relative="1" as="geometry" />
        </mxCell>
        <mxCell id="fPzmJ7Ew2btwY1fmSqvh-110" value="Ubah Data" style="ellipse;whiteSpace=wrap;html=1;" vertex="1" parent="1">
          <mxGeometry x="1260" y="1146" width="85" height="40" as="geometry" />
        </mxCell>
        <mxCell id="fPzmJ7Ew2btwY1fmSqvh-115" style="edgeStyle=none;rounded=0;orthogonalLoop=1;jettySize=auto;html=1;" edge="1" parent="1" source="fPzmJ7Ew2btwY1fmSqvh-111" target="fPzmJ7Ew2btwY1fmSqvh-109">
          <mxGeometry relative="1" as="geometry" />
        </mxCell>
        <mxCell id="fPzmJ7Ew2btwY1fmSqvh-111" value="Melihat Data" style="ellipse;whiteSpace=wrap;html=1;" vertex="1" parent="1">
          <mxGeometry x="1345" y="1105" width="80" height="40" as="geometry" />
        </mxCell>
        <mxCell id="fPzmJ7Ew2btwY1fmSqvh-125" style="edgeStyle=none;rounded=0;orthogonalLoop=1;jettySize=auto;html=1;dashed=1;" edge="1" parent="1" source="fPzmJ7Ew2btwY1fmSqvh-117" target="fPzmJ7Ew2btwY1fmSqvh-66">
          <mxGeometry relative="1" as="geometry" />
        </mxCell>
        <mxCell id="fPzmJ7Ew2btwY1fmSqvh-117" value="Surat Masuk" style="ellipse;whiteSpace=wrap;html=1;" vertex="1" parent="1">
          <mxGeometry x="1235" y="778.3299999999999" width="85" height="46.67" as="geometry" />
        </mxCell>
        <mxCell id="fPzmJ7Ew2btwY1fmSqvh-118" style="edgeStyle=none;rounded=0;orthogonalLoop=1;jettySize=auto;html=1;" edge="1" parent="1" source="fPzmJ7Ew2btwY1fmSqvh-123" target="fPzmJ7Ew2btwY1fmSqvh-117">
          <mxGeometry relative="1" as="geometry" />
        </mxCell>
        <mxCell id="fPzmJ7Ew2btwY1fmSqvh-119" style="edgeStyle=none;rounded=0;orthogonalLoop=1;jettySize=auto;html=1;" edge="1" parent="1" source="fPzmJ7Ew2btwY1fmSqvh-122" target="fPzmJ7Ew2btwY1fmSqvh-117">
          <mxGeometry relative="1" as="geometry" />
        </mxCell>
        <mxCell id="fPzmJ7Ew2btwY1fmSqvh-120" style="edgeStyle=none;rounded=0;orthogonalLoop=1;jettySize=auto;html=1;" edge="1" parent="1" source="fPzmJ7Ew2btwY1fmSqvh-121" target="fPzmJ7Ew2btwY1fmSqvh-117">
          <mxGeometry relative="1" as="geometry" />
        </mxCell>
        <mxCell id="fPzmJ7Ew2btwY1fmSqvh-121" value="Melihat Data" style="ellipse;whiteSpace=wrap;html=1;" vertex="1" parent="1">
          <mxGeometry x="1385" y="738.3299999999999" width="90" height="40" as="geometry" />
        </mxCell>
        <mxCell id="fPzmJ7Ew2btwY1fmSqvh-122" value="Cetak Data" style="ellipse;whiteSpace=wrap;html=1;" vertex="1" parent="1">
          <mxGeometry x="1345" y="685" width="85" height="40" as="geometry" />
        </mxCell>
        <mxCell id="fPzmJ7Ew2btwY1fmSqvh-123" value="Tambah Data" style="ellipse;whiteSpace=wrap;html=1;" vertex="1" parent="1">
          <mxGeometry x="1255" y="675" width="85" height="40" as="geometry" />
        </mxCell>
        <mxCell id="fPzmJ7Ew2btwY1fmSqvh-127" style="edgeStyle=none;rounded=0;orthogonalLoop=1;jettySize=auto;html=1;dashed=1;" edge="1" parent="1" source="fPzmJ7Ew2btwY1fmSqvh-126" target="fPzmJ7Ew2btwY1fmSqvh-66">
          <mxGeometry relative="1" as="geometry" />
        </mxCell>
        <mxCell id="fPzmJ7Ew2btwY1fmSqvh-126" value="Surat Tugas" style="ellipse;whiteSpace=wrap;html=1;" vertex="1" parent="1">
          <mxGeometry x="1360" y="822.3299999999999" width="85" height="46.67" as="geometry" />
        </mxCell>
        <mxCell id="fPzmJ7Ew2btwY1fmSqvh-131" style="edgeStyle=none;rounded=0;orthogonalLoop=1;jettySize=auto;html=1;" edge="1" parent="1" source="fPzmJ7Ew2btwY1fmSqvh-128" target="fPzmJ7Ew2btwY1fmSqvh-126">
          <mxGeometry relative="1" as="geometry" />
        </mxCell>
        <mxCell id="fPzmJ7Ew2btwY1fmSqvh-128" value="Melihat Data" style="ellipse;whiteSpace=wrap;html=1;" vertex="1" parent="1">
          <mxGeometry x="1485" y="845.2499999999999" width="90" height="40" as="geometry" />
        </mxCell>
        <mxCell id="fPzmJ7Ew2btwY1fmSqvh-130" style="edgeStyle=none;rounded=0;orthogonalLoop=1;jettySize=auto;html=1;" edge="1" parent="1" source="fPzmJ7Ew2btwY1fmSqvh-129" target="fPzmJ7Ew2btwY1fmSqvh-126">
          <mxGeometry relative="1" as="geometry" />
        </mxCell>
        <mxCell id="fPzmJ7Ew2btwY1fmSqvh-129" value="Cetak Data" style="ellipse;whiteSpace=wrap;html=1;" vertex="1" parent="1">
          <mxGeometry x="1450" y="784" width="85" height="40" as="geometry" />
        </mxCell>
        <mxCell id="fPzmJ7Ew2btwY1fmSqvh-137" style="edgeStyle=none;rounded=0;orthogonalLoop=1;jettySize=auto;html=1;dashed=1;" edge="1" parent="1" source="fPzmJ7Ew2btwY1fmSqvh-136" target="fPzmJ7Ew2btwY1fmSqvh-66">
          <mxGeometry relative="1" as="geometry" />
        </mxCell>
        <mxCell id="fPzmJ7Ew2btwY1fmSqvh-136" value="Data Rincian" style="ellipse;whiteSpace=wrap;html=1;" vertex="1" parent="1">
          <mxGeometry x="1365" y="898.3299999999999" width="85" height="46.67" as="geometry" />
        </mxCell>
        <mxCell id="fPzmJ7Ew2btwY1fmSqvh-140" style="edgeStyle=none;rounded=0;orthogonalLoop=1;jettySize=auto;html=1;" edge="1" parent="1" source="fPzmJ7Ew2btwY1fmSqvh-138" target="fPzmJ7Ew2btwY1fmSqvh-136">
          <mxGeometry relative="1" as="geometry" />
        </mxCell>
        <mxCell id="fPzmJ7Ew2btwY1fmSqvh-138" value="Melihat Data" style="ellipse;whiteSpace=wrap;html=1;" vertex="1" parent="1">
          <mxGeometry x="1495" y="974.9999999999999" width="90" height="40" as="geometry" />
        </mxCell>
        <mxCell id="fPzmJ7Ew2btwY1fmSqvh-141" style="edgeStyle=none;rounded=0;orthogonalLoop=1;jettySize=auto;html=1;" edge="1" parent="1" source="fPzmJ7Ew2btwY1fmSqvh-139" target="fPzmJ7Ew2btwY1fmSqvh-136">
          <mxGeometry relative="1" as="geometry" />
        </mxCell>
        <mxCell id="fPzmJ7Ew2btwY1fmSqvh-139" value="Cetak Data" style="ellipse;whiteSpace=wrap;html=1;" vertex="1" parent="1">
          <mxGeometry x="1500" y="910" width="85" height="40" as="geometry" />
        </mxCell>
        <mxCell id="fPzmJ7Ew2btwY1fmSqvh-143" style="edgeStyle=none;rounded=0;orthogonalLoop=1;jettySize=auto;html=1;dashed=1;" edge="1" parent="1" source="fPzmJ7Ew2btwY1fmSqvh-142" target="fPzmJ7Ew2btwY1fmSqvh-66">
          <mxGeometry relative="1" as="geometry" />
        </mxCell>
        <mxCell id="fPzmJ7Ew2btwY1fmSqvh-142" value="Nota Dinas" style="ellipse;whiteSpace=wrap;html=1;" vertex="1" parent="1">
          <mxGeometry x="1360" y="967.4999999999999" width="85" height="46.67" as="geometry" />
        </mxCell>
        <mxCell id="fPzmJ7Ew2btwY1fmSqvh-146" value="" style="swimlane;startSize=0;fillColor=#ffffff;" vertex="1" parent="1">
          <mxGeometry x="991.63" y="596.14" width="621.74" height="623.86" as="geometry" />
        </mxCell>
        <mxCell id="fPzmJ7Ew2btwY1fmSqvh-151" value="Use Case Kepala Kantor" style="text;html=1;strokeColor=none;fillColor=none;align=center;verticalAlign=middle;whiteSpace=wrap;rounded=0;" vertex="1" parent="fPzmJ7Ew2btwY1fmSqvh-146">
          <mxGeometry x="180.37" width="205" height="20" as="geometry" />
        </mxCell>
        <mxCell id="fPzmJ7Ew2btwY1fmSqvh-215" value="" style="edgeStyle=none;rounded=0;orthogonalLoop=1;jettySize=auto;html=1;" edge="1" parent="1" source="fPzmJ7Ew2btwY1fmSqvh-216" target="fPzmJ7Ew2btwY1fmSqvh-218">
          <mxGeometry relative="1" as="geometry" />
        </mxCell>
        <mxCell id="fPzmJ7Ew2btwY1fmSqvh-216" value="Admin" style="shape=umlActor;verticalLabelPosition=bottom;verticalAlign=top;html=1;outlineConnect=0;fillColor=none;" vertex="1" parent="1">
          <mxGeometry x="145.81" y="1592.8600000000001" width="30" height="60" as="geometry" />
        </mxCell>
        <mxCell id="fPzmJ7Ew2btwY1fmSqvh-217" value="" style="edgeStyle=none;rounded=0;orthogonalLoop=1;jettySize=auto;html=1;" edge="1" parent="1" source="fPzmJ7Ew2btwY1fmSqvh-218" target="fPzmJ7Ew2btwY1fmSqvh-219">
          <mxGeometry relative="1" as="geometry" />
        </mxCell>
        <mxCell id="fPzmJ7Ew2btwY1fmSqvh-218" value="Login" style="ellipse;whiteSpace=wrap;html=1;verticalAlign=middle;" vertex="1" parent="1">
          <mxGeometry x="335.81" y="1606.3600000000001" width="70" height="35" as="geometry" />
        </mxCell>
        <mxCell id="fPzmJ7Ew2btwY1fmSqvh-219" value="Dashboard" style="ellipse;whiteSpace=wrap;html=1;verticalAlign=middle;" vertex="1" parent="1">
          <mxGeometry x="475.81" y="1598.24" width="82.5" height="51.25" as="geometry" />
        </mxCell>
        <mxCell id="fPzmJ7Ew2btwY1fmSqvh-220" style="edgeStyle=none;rounded=0;orthogonalLoop=1;jettySize=auto;html=1;" edge="1" parent="1" source="fPzmJ7Ew2btwY1fmSqvh-221" target="fPzmJ7Ew2btwY1fmSqvh-223">
          <mxGeometry relative="1" as="geometry" />
        </mxCell>
        <mxCell id="fPzmJ7Ew2btwY1fmSqvh-221" value="Cetak Data" style="ellipse;whiteSpace=wrap;html=1;" vertex="1" parent="1">
          <mxGeometry x="335.81" y="1828.8600000000001" width="70" height="40" as="geometry" />
        </mxCell>
        <mxCell id="fPzmJ7Ew2btwY1fmSqvh-222" style="edgeStyle=none;rounded=0;orthogonalLoop=1;jettySize=auto;html=1;dashed=1;" edge="1" parent="1" source="fPzmJ7Ew2btwY1fmSqvh-223" target="fPzmJ7Ew2btwY1fmSqvh-219">
          <mxGeometry relative="1" as="geometry" />
        </mxCell>
        <mxCell id="fPzmJ7Ew2btwY1fmSqvh-223" value="Data pegawai" style="ellipse;whiteSpace=wrap;html=1;" vertex="1" parent="1">
          <mxGeometry x="410.81" y="1668.8600000000001" width="85" height="40" as="geometry" />
        </mxCell>
        <mxCell id="fPzmJ7Ew2btwY1fmSqvh-224" style="edgeStyle=none;rounded=0;orthogonalLoop=1;jettySize=auto;html=1;entryX=0.612;entryY=0.975;entryDx=0;entryDy=0;entryPerimeter=0;" edge="1" parent="1" source="fPzmJ7Ew2btwY1fmSqvh-225" target="fPzmJ7Ew2btwY1fmSqvh-223">
          <mxGeometry relative="1" as="geometry" />
        </mxCell>
        <mxCell id="fPzmJ7Ew2btwY1fmSqvh-225" value="Tambah Data" style="ellipse;whiteSpace=wrap;html=1;" vertex="1" parent="1">
          <mxGeometry x="395.81" y="1869.8600000000001" width="75" height="45" as="geometry" />
        </mxCell>
        <mxCell id="fPzmJ7Ew2btwY1fmSqvh-226" style="edgeStyle=none;rounded=0;orthogonalLoop=1;jettySize=auto;html=1;entryX=1;entryY=1;entryDx=0;entryDy=0;" edge="1" parent="1" source="fPzmJ7Ew2btwY1fmSqvh-227" target="fPzmJ7Ew2btwY1fmSqvh-223">
          <mxGeometry relative="1" as="geometry" />
        </mxCell>
        <mxCell id="fPzmJ7Ew2btwY1fmSqvh-227" value="Ubah Data" style="ellipse;whiteSpace=wrap;html=1;" vertex="1" parent="1">
          <mxGeometry x="458.31" y="1813.8600000000001" width="70" height="55" as="geometry" />
        </mxCell>
        <mxCell id="fPzmJ7Ew2btwY1fmSqvh-228" style="edgeStyle=none;rounded=0;orthogonalLoop=1;jettySize=auto;html=1;entryX=0;entryY=1;entryDx=0;entryDy=0;" edge="1" parent="1" source="fPzmJ7Ew2btwY1fmSqvh-229" target="fPzmJ7Ew2btwY1fmSqvh-223">
          <mxGeometry relative="1" as="geometry">
            <mxPoint x="486.9848552249642" y="1778.1368421702741" as="targetPoint" />
          </mxGeometry>
        </mxCell>
        <mxCell id="fPzmJ7Ew2btwY1fmSqvh-229" value="Cetak Data" style="ellipse;whiteSpace=wrap;html=1;" vertex="1" parent="1">
          <mxGeometry x="295.81" y="1778.8600000000001" width="70" height="40" as="geometry" />
        </mxCell>
        <mxCell id="fPzmJ7Ew2btwY1fmSqvh-230" style="edgeStyle=none;rounded=0;orthogonalLoop=1;jettySize=auto;html=1;" edge="1" parent="1" source="fPzmJ7Ew2btwY1fmSqvh-231" target="fPzmJ7Ew2btwY1fmSqvh-223">
          <mxGeometry relative="1" as="geometry">
            <mxPoint x="425.81" y="1768.8600000000001" as="targetPoint" />
          </mxGeometry>
        </mxCell>
        <mxCell id="fPzmJ7Ew2btwY1fmSqvh-231" value="Melihat data" style="ellipse;whiteSpace=wrap;html=1;" vertex="1" parent="1">
          <mxGeometry x="290.81" y="1718.8600000000001" width="65" height="42.5" as="geometry" />
        </mxCell>
        <mxCell id="fPzmJ7Ew2btwY1fmSqvh-232" style="edgeStyle=none;rounded=0;orthogonalLoop=1;jettySize=auto;html=1;" edge="1" parent="1" source="fPzmJ7Ew2btwY1fmSqvh-233" target="fPzmJ7Ew2btwY1fmSqvh-241">
          <mxGeometry relative="1" as="geometry" />
        </mxCell>
        <mxCell id="fPzmJ7Ew2btwY1fmSqvh-233" value="Cetak Data" style="ellipse;whiteSpace=wrap;html=1;" vertex="1" parent="1">
          <mxGeometry x="290.81" y="1448.8600000000001" width="70" height="40" as="geometry" />
        </mxCell>
        <mxCell id="fPzmJ7Ew2btwY1fmSqvh-234" style="edgeStyle=none;rounded=0;orthogonalLoop=1;jettySize=auto;html=1;" edge="1" parent="1" source="fPzmJ7Ew2btwY1fmSqvh-235" target="fPzmJ7Ew2btwY1fmSqvh-241">
          <mxGeometry relative="1" as="geometry" />
        </mxCell>
        <mxCell id="fPzmJ7Ew2btwY1fmSqvh-235" value="Melihat data" style="ellipse;whiteSpace=wrap;html=1;" vertex="1" parent="1">
          <mxGeometry x="280.81" y="1500.3600000000001" width="65" height="42.5" as="geometry" />
        </mxCell>
        <mxCell id="fPzmJ7Ew2btwY1fmSqvh-236" style="edgeStyle=none;rounded=0;orthogonalLoop=1;jettySize=auto;html=1;exitX=0.613;exitY=0.989;exitDx=0;exitDy=0;exitPerimeter=0;" edge="1" parent="1" source="fPzmJ7Ew2btwY1fmSqvh-237" target="fPzmJ7Ew2btwY1fmSqvh-241">
          <mxGeometry relative="1" as="geometry">
            <mxPoint x="398.43390239271736" y="1463.648975408321" as="sourcePoint" />
          </mxGeometry>
        </mxCell>
        <mxCell id="fPzmJ7Ew2btwY1fmSqvh-237" value="Tambah Data" style="ellipse;whiteSpace=wrap;html=1;" vertex="1" parent="1">
          <mxGeometry x="350.81" y="1411.3600000000001" width="75" height="45" as="geometry" />
        </mxCell>
        <mxCell id="fPzmJ7Ew2btwY1fmSqvh-238" style="edgeStyle=none;rounded=0;orthogonalLoop=1;jettySize=auto;html=1;" edge="1" parent="1" source="fPzmJ7Ew2btwY1fmSqvh-239" target="fPzmJ7Ew2btwY1fmSqvh-241">
          <mxGeometry relative="1" as="geometry">
            <mxPoint x="459.60460232856764" y="1462.4125495860803" as="sourcePoint" />
          </mxGeometry>
        </mxCell>
        <mxCell id="fPzmJ7Ew2btwY1fmSqvh-239" value="Ubah Data" style="ellipse;whiteSpace=wrap;html=1;" vertex="1" parent="1">
          <mxGeometry x="430.81" y="1393.8600000000001" width="60" height="55" as="geometry" />
        </mxCell>
        <mxCell id="fPzmJ7Ew2btwY1fmSqvh-240" style="edgeStyle=none;rounded=0;orthogonalLoop=1;jettySize=auto;html=1;dashed=1;" edge="1" parent="1" source="fPzmJ7Ew2btwY1fmSqvh-241" target="fPzmJ7Ew2btwY1fmSqvh-219">
          <mxGeometry relative="1" as="geometry" />
        </mxCell>
        <mxCell id="fPzmJ7Ew2btwY1fmSqvh-241" value="&lt;div&gt;Data Direktur&lt;/div&gt;" style="ellipse;whiteSpace=wrap;html=1;verticalAlign=middle;" vertex="1" parent="1">
          <mxGeometry x="378.31" y="1528.8600000000001" width="82.5" height="51.25" as="geometry" />
        </mxCell>
        <mxCell id="fPzmJ7Ew2btwY1fmSqvh-242" style="edgeStyle=none;rounded=0;orthogonalLoop=1;jettySize=auto;html=1;dashed=1;" edge="1" parent="1" source="fPzmJ7Ew2btwY1fmSqvh-243" target="fPzmJ7Ew2btwY1fmSqvh-219">
          <mxGeometry relative="1" as="geometry" />
        </mxCell>
        <mxCell id="fPzmJ7Ew2btwY1fmSqvh-243" value="Permohonan" style="ellipse;whiteSpace=wrap;html=1;" vertex="1" parent="1">
          <mxGeometry x="520.81" y="1714.6100000000001" width="80" height="51" as="geometry" />
        </mxCell>
        <mxCell id="fPzmJ7Ew2btwY1fmSqvh-244" style="edgeStyle=none;rounded=0;orthogonalLoop=1;jettySize=auto;html=1;" edge="1" parent="1" source="fPzmJ7Ew2btwY1fmSqvh-245" target="fPzmJ7Ew2btwY1fmSqvh-243">
          <mxGeometry relative="1" as="geometry" />
        </mxCell>
        <mxCell id="fPzmJ7Ew2btwY1fmSqvh-246" style="edgeStyle=none;rounded=0;orthogonalLoop=1;jettySize=auto;html=1;" edge="1" parent="1" source="fPzmJ7Ew2btwY1fmSqvh-247" target="fPzmJ7Ew2btwY1fmSqvh-243">
          <mxGeometry relative="1" as="geometry" />
        </mxCell>
        <mxCell id="fPzmJ7Ew2btwY1fmSqvh-248" style="edgeStyle=none;rounded=0;orthogonalLoop=1;jettySize=auto;html=1;dashed=1;" edge="1" parent="1" source="fPzmJ7Ew2btwY1fmSqvh-249" target="fPzmJ7Ew2btwY1fmSqvh-219">
          <mxGeometry relative="1" as="geometry" />
        </mxCell>
        <mxCell id="fPzmJ7Ew2btwY1fmSqvh-249" value="Surat Masuk" style="ellipse;whiteSpace=wrap;html=1;" vertex="1" parent="1">
          <mxGeometry x="480.81" y="1502.19" width="85" height="46.67" as="geometry" />
        </mxCell>
        <mxCell id="fPzmJ7Ew2btwY1fmSqvh-250" style="edgeStyle=none;rounded=0;orthogonalLoop=1;jettySize=auto;html=1;" edge="1" parent="1" source="fPzmJ7Ew2btwY1fmSqvh-255" target="fPzmJ7Ew2btwY1fmSqvh-249">
          <mxGeometry relative="1" as="geometry" />
        </mxCell>
        <mxCell id="fPzmJ7Ew2btwY1fmSqvh-251" style="edgeStyle=none;rounded=0;orthogonalLoop=1;jettySize=auto;html=1;" edge="1" parent="1" source="fPzmJ7Ew2btwY1fmSqvh-254" target="fPzmJ7Ew2btwY1fmSqvh-249">
          <mxGeometry relative="1" as="geometry" />
        </mxCell>
        <mxCell id="fPzmJ7Ew2btwY1fmSqvh-252" style="edgeStyle=none;rounded=0;orthogonalLoop=1;jettySize=auto;html=1;" edge="1" parent="1" source="fPzmJ7Ew2btwY1fmSqvh-253" target="fPzmJ7Ew2btwY1fmSqvh-249">
          <mxGeometry relative="1" as="geometry" />
        </mxCell>
        <mxCell id="fPzmJ7Ew2btwY1fmSqvh-253" value="Melihat Data" style="ellipse;whiteSpace=wrap;html=1;" vertex="1" parent="1">
          <mxGeometry x="630.81" y="1462.19" width="90" height="40" as="geometry" />
        </mxCell>
        <mxCell id="fPzmJ7Ew2btwY1fmSqvh-255" value="Tambah Data" style="ellipse;whiteSpace=wrap;html=1;" vertex="1" parent="1">
          <mxGeometry x="500.81" y="1398.8600000000001" width="85" height="40" as="geometry" />
        </mxCell>
        <mxCell id="fPzmJ7Ew2btwY1fmSqvh-256" style="edgeStyle=none;rounded=0;orthogonalLoop=1;jettySize=auto;html=1;dashed=1;" edge="1" parent="1" source="fPzmJ7Ew2btwY1fmSqvh-257" target="fPzmJ7Ew2btwY1fmSqvh-219">
          <mxGeometry relative="1" as="geometry" />
        </mxCell>
        <mxCell id="fPzmJ7Ew2btwY1fmSqvh-262" style="edgeStyle=none;rounded=0;orthogonalLoop=1;jettySize=auto;html=1;dashed=1;" edge="1" parent="1" source="fPzmJ7Ew2btwY1fmSqvh-263" target="fPzmJ7Ew2btwY1fmSqvh-219">
          <mxGeometry relative="1" as="geometry" />
        </mxCell>
        <mxCell id="fPzmJ7Ew2btwY1fmSqvh-263" value="Data Rincian" style="ellipse;whiteSpace=wrap;html=1;" vertex="1" parent="1">
          <mxGeometry x="610.81" y="1622.19" width="85" height="46.67" as="geometry" />
        </mxCell>
        <mxCell id="fPzmJ7Ew2btwY1fmSqvh-264" style="edgeStyle=none;rounded=0;orthogonalLoop=1;jettySize=auto;html=1;" edge="1" parent="1" source="fPzmJ7Ew2btwY1fmSqvh-265" target="fPzmJ7Ew2btwY1fmSqvh-263">
          <mxGeometry relative="1" as="geometry" />
        </mxCell>
        <mxCell id="fPzmJ7Ew2btwY1fmSqvh-265" value="Melihat Data" style="ellipse;whiteSpace=wrap;html=1;" vertex="1" parent="1">
          <mxGeometry x="740.8100000000002" y="1698.86" width="90" height="40" as="geometry" />
        </mxCell>
        <mxCell id="fPzmJ7Ew2btwY1fmSqvh-266" style="edgeStyle=none;rounded=0;orthogonalLoop=1;jettySize=auto;html=1;" edge="1" parent="1" source="fPzmJ7Ew2btwY1fmSqvh-267" target="fPzmJ7Ew2btwY1fmSqvh-263">
          <mxGeometry relative="1" as="geometry" />
        </mxCell>
        <mxCell id="fPzmJ7Ew2btwY1fmSqvh-267" value="Cetak Data" style="ellipse;whiteSpace=wrap;html=1;" vertex="1" parent="1">
          <mxGeometry x="745.8100000000002" y="1633.8600000000001" width="85" height="40" as="geometry" />
        </mxCell>
        <mxCell id="fPzmJ7Ew2btwY1fmSqvh-268" style="edgeStyle=none;rounded=0;orthogonalLoop=1;jettySize=auto;html=1;dashed=1;" edge="1" parent="1" source="fPzmJ7Ew2btwY1fmSqvh-269" target="fPzmJ7Ew2btwY1fmSqvh-219">
          <mxGeometry relative="1" as="geometry" />
        </mxCell>
        <mxCell id="fPzmJ7Ew2btwY1fmSqvh-269" value="Nota Dinas" style="ellipse;whiteSpace=wrap;html=1;" vertex="1" parent="1">
          <mxGeometry x="605.81" y="1691.36" width="85" height="46.67" as="geometry" />
        </mxCell>
        <mxCell id="fPzmJ7Ew2btwY1fmSqvh-270" value="" style="swimlane;startSize=0;fillColor=#ffffff;" vertex="1" parent="1">
          <mxGeometry x="237.44" y="1320" width="621.74" height="623.86" as="geometry" />
        </mxCell>
        <mxCell id="fPzmJ7Ew2btwY1fmSqvh-271" value="Use Case Admin" style="text;html=1;strokeColor=none;fillColor=none;align=center;verticalAlign=middle;whiteSpace=wrap;rounded=0;" vertex="1" parent="fPzmJ7Ew2btwY1fmSqvh-270">
          <mxGeometry x="208.37" width="205" height="20" as="geometry" />
        </mxCell>
        <mxCell id="fPzmJ7Ew2btwY1fmSqvh-254" value="Cetak Data" style="ellipse;whiteSpace=wrap;html=1;" vertex="1" parent="fPzmJ7Ew2btwY1fmSqvh-270">
          <mxGeometry x="345.06" y="38.86000000000013" width="85" height="40" as="geometry" />
        </mxCell>
        <mxCell id="fPzmJ7Ew2btwY1fmSqvh-272" value="Ubah Data" style="ellipse;whiteSpace=wrap;html=1;" vertex="1" parent="fPzmJ7Ew2btwY1fmSqvh-270">
          <mxGeometry x="392.56" y="78.86" width="77.44" height="55" as="geometry" />
        </mxCell>
        <mxCell id="fPzmJ7Ew2btwY1fmSqvh-274" style="edgeStyle=none;rounded=0;orthogonalLoop=1;jettySize=auto;html=1;exitX=1;exitY=0.5;exitDx=0;exitDy=0;" edge="1" parent="fPzmJ7Ew2btwY1fmSqvh-270" source="fPzmJ7Ew2btwY1fmSqvh-272" target="fPzmJ7Ew2btwY1fmSqvh-272">
          <mxGeometry relative="1" as="geometry" />
        </mxCell>
        <mxCell id="fPzmJ7Ew2btwY1fmSqvh-257" value="Surat Tugas" style="ellipse;whiteSpace=wrap;html=1;" vertex="1" parent="fPzmJ7Ew2btwY1fmSqvh-270">
          <mxGeometry x="352.56" y="210" width="85" height="46.67" as="geometry" />
        </mxCell>
        <mxCell id="fPzmJ7Ew2btwY1fmSqvh-261" value="Cetak Data" style="ellipse;whiteSpace=wrap;html=1;" vertex="1" parent="fPzmJ7Ew2btwY1fmSqvh-270">
          <mxGeometry x="510.0900000000002" y="110.00000000000024" width="85" height="40" as="geometry" />
        </mxCell>
        <mxCell id="fPzmJ7Ew2btwY1fmSqvh-260" style="edgeStyle=none;rounded=0;orthogonalLoop=1;jettySize=auto;html=1;" edge="1" parent="fPzmJ7Ew2btwY1fmSqvh-270" source="fPzmJ7Ew2btwY1fmSqvh-261" target="fPzmJ7Ew2btwY1fmSqvh-257">
          <mxGeometry relative="1" as="geometry" />
        </mxCell>
        <mxCell id="fPzmJ7Ew2btwY1fmSqvh-259" value="Melihat Data" style="ellipse;whiteSpace=wrap;html=1;" vertex="1" parent="fPzmJ7Ew2btwY1fmSqvh-270">
          <mxGeometry x="522.5600000000002" y="160" width="90" height="40" as="geometry" />
        </mxCell>
        <mxCell id="fPzmJ7Ew2btwY1fmSqvh-258" style="edgeStyle=none;rounded=0;orthogonalLoop=1;jettySize=auto;html=1;" edge="1" parent="fPzmJ7Ew2btwY1fmSqvh-270" source="fPzmJ7Ew2btwY1fmSqvh-259" target="fPzmJ7Ew2btwY1fmSqvh-257">
          <mxGeometry relative="1" as="geometry" />
        </mxCell>
        <mxCell id="fPzmJ7Ew2btwY1fmSqvh-277" style="edgeStyle=none;rounded=0;orthogonalLoop=1;jettySize=auto;html=1;" edge="1" parent="fPzmJ7Ew2btwY1fmSqvh-270" source="fPzmJ7Ew2btwY1fmSqvh-275" target="fPzmJ7Ew2btwY1fmSqvh-257">
          <mxGeometry relative="1" as="geometry" />
        </mxCell>
        <mxCell id="fPzmJ7Ew2btwY1fmSqvh-275" value="Ubah Data" style="ellipse;whiteSpace=wrap;html=1;" vertex="1" parent="fPzmJ7Ew2btwY1fmSqvh-270">
          <mxGeometry x="537.5600000000001" y="210.00000000000003" width="74.94" height="40" as="geometry" />
        </mxCell>
        <mxCell id="fPzmJ7Ew2btwY1fmSqvh-279" style="edgeStyle=none;rounded=0;orthogonalLoop=1;jettySize=auto;html=1;" edge="1" parent="fPzmJ7Ew2btwY1fmSqvh-270" source="fPzmJ7Ew2btwY1fmSqvh-278" target="fPzmJ7Ew2btwY1fmSqvh-257">
          <mxGeometry relative="1" as="geometry" />
        </mxCell>
        <mxCell id="fPzmJ7Ew2btwY1fmSqvh-278" value="Tambah Data" style="ellipse;whiteSpace=wrap;html=1;" vertex="1" parent="fPzmJ7Ew2btwY1fmSqvh-270">
          <mxGeometry x="527.06" y="260.6700000000001" width="85" height="40" as="geometry" />
        </mxCell>
        <mxCell id="fPzmJ7Ew2btwY1fmSqvh-247" value="Melihat Data" style="ellipse;whiteSpace=wrap;html=1;" vertex="1" parent="fPzmJ7Ew2btwY1fmSqvh-270">
          <mxGeometry x="385.36999999999995" y="480.0000000000002" width="80" height="40" as="geometry" />
        </mxCell>
        <mxCell id="fPzmJ7Ew2btwY1fmSqvh-245" value="Ubah Data" style="ellipse;whiteSpace=wrap;html=1;" vertex="1" parent="fPzmJ7Ew2btwY1fmSqvh-270">
          <mxGeometry x="307.56" y="520.0000000000002" width="85" height="40" as="geometry" />
        </mxCell>
        <mxCell id="fPzmJ7Ew2btwY1fmSqvh-273" style="edgeStyle=none;rounded=0;orthogonalLoop=1;jettySize=auto;html=1;" edge="1" parent="1" source="fPzmJ7Ew2btwY1fmSqvh-272" target="fPzmJ7Ew2btwY1fmSqvh-249">
          <mxGeometry relative="1" as="geometry" />
        </mxCell>
      </root>
    </mxGraphModel>
  </diagram>
</mxfile>
